<?xml version="1.0" encoding="UTF-8"?>
<svg viewBox="0 0 64 64" xmlns="http://www.w3.org/2000/svg">
<path d="m42.89 21.11c-0.851-0.8482-2.0035-1.3245-3.205-1.3245s-2.354 0.4763-3.205 1.3245l-4.48 4.48-4.48-4.48c-0.85-0.85-2.0029-1.3275-3.205-1.3275s-2.355 0.4775-3.205 1.3275-1.3275 2.0029-1.3275 3.205 0.4775 2.355 1.3275 3.205l4.48 4.48-4.48 4.48c-0.85 0.85-1.3275 2.0029-1.3275 3.205s0.4775 2.355 1.3275 3.205 2.0029 1.3276 3.205 1.3276 2.355-0.4776 3.205-1.3276l4.48-4.48 4.48 4.48c0.4209 0.4209 0.9206 0.7548 1.4705 0.9826 0.5499 0.2277 1.1393 0.345 1.7345 0.345s1.1846-0.1173 1.7346-0.345c0.5499-0.2278 1.0495-0.5617 1.4704-0.9826s0.7548-0.9205 0.9826-1.4704c0.2277-0.55 0.345-1.1394 0.345-1.7346s-0.1173-1.1846-0.345-1.7345c-0.2278-0.5499-0.5617-1.0496-0.9826-1.4705l-4.48-4.48 4.48-4.48c0.8458-0.8522 1.3204-2.0043 1.3204-3.205s-0.4746-2.3527-1.3204-3.205z" fill="#f2f2f2"/>
<path d="m32 3c-5.7356 0-11.342 1.7008-16.112 4.8874-4.769 3.1865-8.486 7.7157-10.681 13.015-2.1949 5.299-2.7692 11.13-1.6503 16.755 1.119 5.6255 3.881 10.793 7.9367 14.848 4.0557 4.0557 9.223 6.8177 14.848 7.9367 5.6254 1.1189 11.456 0.5446 16.755-1.6503 5.2991-2.1949 9.8283-5.9119 13.015-10.681 3.1866-4.769 4.8874-10.376 4.8874-16.112 0-7.6913-3.0553-15.068-8.4939-20.506-5.4385-5.4386-12.815-8.4939-20.506-8.4939zm0 49c-3.9556 0-7.8224-1.173-11.111-3.3706s-5.8524-5.3212-7.3662-8.9757c-1.5137-3.6546-1.9098-7.6759-1.1381-11.556s2.6765-7.4433 5.4736-10.24c2.797-2.7971 6.3607-4.7019 10.24-5.4736s7.901-0.3756 11.556 1.1381c3.6545 1.5138 6.7781 4.0772 8.9757 7.3662s3.3706 7.1558 3.3706 11.111c0 5.3043-2.1071 10.391-5.8579 14.142-3.7507 3.7508-8.8378 5.8579-14.142 5.8579z" fill="#f2f2f2"/>
</svg>